<mxfile>
    <diagram id="iYxcLr1AsgMvoMo9hayO" name="Page-1">
        <mxGraphModel dx="984" dy="614" grid="1" gridSize="10" guides="1" tooltips="1" connect="1" arrows="1" fold="1" page="1" pageScale="1" pageWidth="850" pageHeight="1100" math="0" shadow="0">
            <root>
                <mxCell id="0"/>
                <mxCell id="1" parent="0"/>
                <mxCell id="4" value="" style="html=1;dashed=0;whitespace=wrap;" vertex="1" parent="1">
                    <mxGeometry x="260" y="70" width="330" height="550" as="geometry"/>
                </mxCell>
                <mxCell id="6" value="Commands" style="ellipse;whiteSpace=wrap;html=1;align=center;" vertex="1" parent="1">
                    <mxGeometry x="300" y="240" width="160" height="60" as="geometry"/>
                </mxCell>
                <mxCell id="7" value="Response" style="ellipse;whiteSpace=wrap;html=1;align=center;" vertex="1" parent="1">
                    <mxGeometry x="370" y="400" width="160" height="60" as="geometry"/>
                </mxCell>
                <mxCell id="8" value="Actor" style="shape=umlActor;verticalLabelPosition=bottom;verticalAlign=top;html=1;outlineConnect=0;" vertex="1" parent="1">
                    <mxGeometry x="50" y="250" width="80" height="140" as="geometry"/>
                </mxCell>
                <mxCell id="9" value="User" style="text;html=1;align=center;verticalAlign=middle;resizable=0;points=[];autosize=1;fontSize=30;" vertex="1" parent="1">
                    <mxGeometry x="40" y="420" width="80" height="40" as="geometry"/>
                </mxCell>
                <mxCell id="12" value="" style="endArrow=classic;html=1;fontSize=30;exitX=0.5;exitY=1;exitDx=0;exitDy=0;entryX=0.5;entryY=0;entryDx=0;entryDy=0;" edge="1" parent="1" source="6" target="7">
                    <mxGeometry width="50" height="50" relative="1" as="geometry">
                        <mxPoint x="260" y="390" as="sourcePoint"/>
                        <mxPoint x="310" y="340" as="targetPoint"/>
                    </mxGeometry>
                </mxCell>
                <mxCell id="15" value="" style="endArrow=classic;html=1;fontSize=30;exitX=1;exitY=0.3333333333333333;exitDx=0;exitDy=0;exitPerimeter=0;entryX=0;entryY=0.5;entryDx=0;entryDy=0;" edge="1" parent="1" source="8" target="6">
                    <mxGeometry width="50" height="50" relative="1" as="geometry">
                        <mxPoint x="260" y="390" as="sourcePoint"/>
                        <mxPoint x="310" y="340" as="targetPoint"/>
                    </mxGeometry>
                </mxCell>
                <mxCell id="18" value="" style="endArrow=classic;html=1;fontSize=30;exitX=0;exitY=0.5;exitDx=0;exitDy=0;" edge="1" parent="1" source="7" target="8">
                    <mxGeometry width="50" height="50" relative="1" as="geometry">
                        <mxPoint x="260" y="390" as="sourcePoint"/>
                        <mxPoint x="310" y="340" as="targetPoint"/>
                    </mxGeometry>
                </mxCell>
                <mxCell id="19" value="Desktop Assistant" style="text;html=1;strokeColor=none;fillColor=none;align=center;verticalAlign=middle;whiteSpace=wrap;rounded=0;fontSize=30;" vertex="1" parent="1">
                    <mxGeometry x="310" y="110" width="40" height="20" as="geometry"/>
                </mxCell>
                <mxCell id="21" value="query" style="text;html=1;strokeColor=none;fillColor=none;align=center;verticalAlign=middle;whiteSpace=wrap;rounded=0;fontSize=14;" vertex="1" parent="1">
                    <mxGeometry x="120" y="240" width="110" height="30" as="geometry"/>
                </mxCell>
                <mxCell id="22" value="recieves" style="text;html=1;strokeColor=none;fillColor=none;align=center;verticalAlign=middle;whiteSpace=wrap;rounded=0;fontSize=14;" vertex="1" parent="1">
                    <mxGeometry x="140" y="380" width="110" height="30" as="geometry"/>
                </mxCell>
                <mxCell id="23" value="interpreter" style="text;html=1;strokeColor=none;fillColor=none;align=center;verticalAlign=middle;whiteSpace=wrap;rounded=0;fontSize=14;rotation=0;" vertex="1" parent="1">
                    <mxGeometry x="410" y="320" width="110" height="30" as="geometry"/>
                </mxCell>
            </root>
        </mxGraphModel>
    </diagram>
</mxfile>